/* XPM */
static char * corner_1_xpm[] = {
"32 32 6 1",
" 	c #733120",
".	c #9C7BA4",
"+	c #391852",
"@	c #000000",
"#	c #FFFF8B",
"$	c #CD7320",
"        ..++@@@@@@@@@@@@@@@@@@@@",
"        ..++@@@@@@@@@@@@@@@@@@@@",
"    ..++@@@@++++++++++++++++++++",
"    ..++@@@@++++++++++++++++++++",
"  ..++@@++......................",
"  ..++@@++......................",
"  ++@@....################..####",
"  ++@@....################..####",
"..@@++..##########..############",
"..@@++..##########..############",
"++@@....######..................",
"++@@....######..................",
"@@++..######..++++++++++++++++++",
"@@++..######..++++++++++++++++++",
"@@++..####..++@@@@@@@@@@@@@@@@@@",
"@@++..####..++@@@@@@@@@@@@@@@@@@",
"@@++..####..++@@  $$$$$$$$$$$$$$",
"@@++..####..++@@  $$$$$$$$$$$$$$",
"@@++..####..++@@$$$$$$$$$$$$$$$$",
"@@++..####..++@@$$$$$$$$$$$$$$$$",
"@@++....##..++@@$$$$$$@@@@      ",
"@@++....##..++@@$$$$$$@@@@      ",
"@@++..####..++@@$$$$    @@@@    ",
"@@++..####..++@@$$$$    @@@@    ",
"@@++..####..++@@$$$$      @@@@  ",
"@@++..####..++@@$$$$      @@@@  ",
"@@++..####..++@@$$$$      @@@@@@",
"@@++..####..++@@$$$$      @@@@@@",
"@@++..##....++@@$$$$        @@@@",
"@@++..##....++@@$$$$        @@@@",
"@@++..####..++@@$$$$        @@@@",
"@@++..####..++@@$$$$        @@@@"};
