/* XPM */
static char * corner_2_xpm[] = {
"32 32 6 1",
" 	c #000000",
".	c #391852",
"+	c #9C7BA4",
"@	c #733120",
"#	c #FFFF8B",
"$	c #CD7320",
"                    ..++@@@@@@@@",
"                    ..++@@@@@@@@",
"....................    ..++@@@@",
"....................    ..++@@@@",
"++++++++++++++++++++++..  ..++@@",
"++++++++++++++++++++++..  ..++@@",
"##########++##########++++  ..@@",
"##########++##########++++  ..@@",
"##++####################++..  ++",
"##++####################++..  ++",
"++++++++++++++++++######++++  ..",
"++++++++++++++++++######++++  ..",
"..................++######++..  ",
"..................++######++..  ",
"                  ..++####++..  ",
"                  ..++####++..  ",
"$$$$$$$$$$$$$$@@  ..++####++..  ",
"$$$$$$$$$$$$$$@@  ..++####++..  ",
"$$$$$$$$$$$$$$$$  ..++####++..  ",
"$$$$$$$$$$$$$$$$  ..++####++..  ",
"@@@@@@    @@$$$$  ..++++##++..  ",
"@@@@@@    @@$$$$  ..++++##++..  ",
"@@@@    @@@@$$$$  ..++####++..  ",
"@@@@    @@@@$$$$  ..++####++..  ",
"@@    @@@@@@$$$$  ..++####++..  ",
"@@    @@@@@@$$$$  ..++####++..  ",
"      @@@@@@$$$$  ..++####++..  ",
"      @@@@@@$$$$  ..++####++..  ",
"    @@@@@@@@$$$$  ..++##++++..  ",
"    @@@@@@@@$$$$  ..++##++++..  ",
"    @@@@@@@@$$$$  ..++####++..  ",
"    @@@@@@@@$$$$  ..++####++..  "};
