/* XPM */
static char * gravel_1_xpm[] = {
"32 32 3 1",
" 	c #CD7320",
".	c #FFFF8B",
"+	c #733120",
"      ..      ..      ..      ..",
"      ..      ..      ..      ..",
"..++      ..    ..++      ..    ",
"..++      ..    ..++      ..    ",
"    ....            ....        ",
"    ....            ....        ",
"..        ..  ....        ..  ..",
"..        ..  ....        ..  ..",
"      ..      ++      ..      ++",
"      ..      ++      ..      ++",
"  ..              ..            ",
"  ..              ..            ",
"        ..  ..          ..  ..  ",
"        ..  ..          ..  ..  ",
"..  ..    ++    ..  ..    ++    ",
"..  ..    ++    ..  ..    ++    ",
"      ..      ..      ..      ..",
"      ..      ..      ..      ..",
"..++      ..    ..++      ..    ",
"..++      ..    ..++      ..    ",
"    ....            ....        ",
"    ....            ....        ",
"..        ..  ....        ..  ..",
"..        ..  ....        ..  ..",
"      ..      ++      ..      ++",
"      ..      ++      ..      ++",
"  ..              ..            ",
"  ..              ..            ",
"        ..  ..          ..  ..  ",
"        ..  ..          ..  ..  ",
"..  ..    ++    ..  ..    ++    ",
"..  ..    ++    ..  ..    ++    "};
