/* XPM */
static char * player_2_xpm[] = {
"32 32 6 1",
" 	c #CD7320",
".	c #FFFF8B",
"+	c #000000",
"@	c #733120",
"#	c #FFBD8C",
"$	c #FF0000",
"      ..    ++++++    ..      ..",
"      ..    ++++++    ..      ..",
"..@@      ++++++++++      ..    ",
"..@@      ++++++++++      ..    ",
"    ....  ++########++..        ",
"    ....  ++########++..        ",
"..    ++++##++++++++##++++..  ..",
"..    ++++##++++++++##++++..  ..",
"    ++##++++$$####$$++++##++  @@",
"    ++##++++$$####$$++++##++  @@",
"  ..++##++$$$$####$$$$++##++    ",
"  ..++##++$$$$####$$$$++##++    ",
"    ++##++$$++$$##$$$$++##++..  ",
"    ++##++$$++$$##$$$$++##++..  ",
"..  ++$$++++$$$$##$$$$++$$++    ",
"..  ++$$++++$$$$##$$$$++$$++    ",
"      ++++++$$$$$$$$++++++    ..",
"      ++++++$$$$$$$$++++++    ..",
"..@@  ++$$++$$$$$$++$$++$$++    ",
"..@@  ++$$++$$$$$$++$$++$$++    ",
"    ++##$$++$$$$++$$$$++$$++    ",
"    ++##$$++$$$$++$$$$++$$++    ",
"..  ++##++$$++++$$$$##$$++++  ..",
"..  ++##++$$++++$$$$##$$++++  ..",
"      ++$$##########$$$$++    @@",
"      ++$$##########$$$$++    @@",
"  ..  ++++$$$$$$$$$$++++++      ",
"  ..  ++++$$$$$$$$$$++++++      ",
"      ++++++++++++++####++++..  ",
"      ++++++++++++++####++++..  ",
"..  ..  ++++++++++++++++++@@    ",
"..  ..  ++++++++++++++++++@@    "};
