/* XPM */
static char * player_2_xpm[] = {
"32 32 4 1",
" 	c None",
".	c #000000",
"+	c #FFBD8C",
"@	c #FF0000",
"            ......              ",
"            ......              ",
"          ..........            ",
"          ..........            ",
"          ..++++++++..          ",
"          ..++++++++..          ",
"      ....++........++....      ",
"      ....++........++....      ",
"    ..++....@@++++@@....++..    ",
"    ..++....@@++++@@....++..    ",
"    ..++..@@@@++++@@@@..++..    ",
"    ..++..@@@@++++@@@@..++..    ",
"    ..++..@@..@@++@@@@..++..    ",
"    ..++..@@..@@++@@@@..++..    ",
"    ..@@....@@@@++@@@@..@@..    ",
"    ..@@....@@@@++@@@@..@@..    ",
"      ......@@@@@@@@......      ",
"      ......@@@@@@@@......      ",
"      ..@@..@@@@@@..@@..@@..    ",
"      ..@@..@@@@@@..@@..@@..    ",
"    ..++@@..@@@@..@@@@..@@..    ",
"    ..++@@..@@@@..@@@@..@@..    ",
"    ..++..@@....@@@@++@@....    ",
"    ..++..@@....@@@@++@@....    ",
"      ..@@++++++++++@@@@..      ",
"      ..@@++++++++++@@@@..      ",
"      ....@@@@@@@@@@......      ",
"      ....@@@@@@@@@@......      ",
"      ..............++++....    ",
"      ..............++++....    ",
"        ..................      ",
"        ..................      "};
