/* XPM */
static char * p_e_2_xpm[] = {
"32 32 5 1",
" 	c #000000",
".	c #CD7320",
"+	c #FFBD8C",
"@	c #733120",
"#	c #FF0000",
"  ........            ........  ",
"  ........            ........  ",
"                    ..          ",
"                    ..          ",
"  ........  ++++++++  ........  ",
"  ........  ++++++++  ........  ",
"    ..    ++        ++    @@@@  ",
"    ..    ++        ++    @@@@  ",
"..    ++    ##++++##    ++  ..  ",
"..    ++    ##++++##    ++  ..  ",
"..    ++  ####++++####  ++      ",
"..    ++  ####++++####  ++      ",
"      ++  ##  ##++####  ++    ..",
"      ++  ##  ##++####  ++    ..",
"  ..  ##    ####++####  ##    ..",
"  ..  ##    ####++####  ##    ..",
"  @@@@      ########      ....  ",
"  @@@@      ########      ....  ",
"    ..  ##  ######  ##  ##  ..  ",
"    ..  ##  ######  ##  ##  ..  ",
"..    ++##  ####  ####  ##    ..",
"..    ++##  ####  ####  ##    ..",
"..    ++  ##    ####++##    ..  ",
"..    ++  ##    ####++##    ..  ",
"  @@@@  ##++++++++++####  ....  ",
"  @@@@  ##++++++++++####  ....  ",
"  ....    ##########      @@    ",
"  ....    ##########      @@    ",
"                    ++++    ..  ",
"                    ++++    ..  ",
"    ....                        ",
"    ....                        "};
