/* XPM */
static char * player_3_xpm[] = {
"32 32 6 1",
" 	c #CD7320",
".	c #FFFF8B",
"+	c #000000",
"@	c #733120",
"#	c #FF0000",
"$	c #FFBD8C",
"      ..    ++++++++++..      ..",
"      ..    ++++++++++..      ..",
"..@@    ++++##$$######++  ..    ",
"..@@    ++++##$$######++  ..    ",
"    ..++$$$$++##$$$$####++      ",
"    ..++$$$$++##$$$$####++      ",
"..++++++##$$$$++####++####++  ..",
"..++++++##$$$$++####++####++  ..",
"    ++++++##$$$$++++$$++####++@@",
"    ++++++##$$$$++++$$++####++@@",
"  ..    ++++++##++##$$++####++  ",
"  ..    ++++++##++##$$++####++  ",
"    ++++$$++$$++++$$$$++##++..  ",
"    ++++$$++$$++++$$$$++##++..  ",
"..  ++$$$$++$$$$++$$$$++++@@    ",
"..  ++$$$$++$$$$++$$$$++++@@    ",
"      ++##$$$$$$++$$##++      ..",
"      ++##$$$$$$++$$##++      ..",
"..@@    ++######++##++++  ..    ",
"..@@    ++######++##++++  ..    ",
"    ....++++++++++++##++        ",
"    ....++++++++++++##++        ",
"..      ++##++$$$$++####++..  ..",
"..      ++##++$$$$++####++..  ..",
"      ..++$$++$$$$++####++    @@",
"      ..++$$++$$$$++####++    @@",
"  ..    ++##++++++++++++++      ",
"  ..    ++##++++++++++++++      ",
"        ++++++$$$$$$$$++..  ..  ",
"        ++++++$$$$$$$$++..  ..  ",
"..  ..++++++++++++++++++++@@    ",
"..  ..++++++++++++++++++++@@    "};
