/* XPM */
static char * player_escape_3_xpm[] = {
"32 32 6 1",
" 	c #FFFF8B",
".	c #CD7320",
"+	c #733120",
"@	c #000000",
"#	c #FF0000",
"$	c #FFBD8C",
"  ..    ++..  ++++  ..++    ..  ",
"  ..    ++..  ++++  ..++    ..  ",
"..@@++..@@++..@@@@..++@@..++@@..",
"..@@++..@@++..@@@@..++@@..++@@..",
"  ++@@++@@@@+@@@@@@@@@@@++@@++  ",
"  ++@@++@@@@@#$$####@@@@++@@++  ",
"....@@@@@@@@@#$$####@@@@@@@@....",
"....@@@@@@$$$@##$$$###@@@@@@....",
"++++@@@@@@#$$$@@###@###@@@@@..++",
"++++@@@@@@#$$$@@###@###@@@@@..++",
"@@@@@@@@@@@##$$$@@@$@@###@@@@@@@",
"@@@@@@@@@@@@@@##@##$@@###@@@@@@@",
"..@@@@@@@@@@@@##@##$@@###@@@@@..",
"..@@@@@@@@$@@$@@@$$$@@#@@@@@@@..",
"  ++@@@@$$$@@$$$@$$$@@@@@@@@++  ",
"  ++@@@@$$$@@$$$@$$$@@@@@@@@++  ",
"++@@@@@@@@#$$$$$@$$#@@++++@@++  ",
"++@@@@@@@@@#####@##@@@++++@@++  ",
"@@@@@@@@@@@#####@##@@@@@++@@@@++",
"@@@@@@@@@@@@@@@@@@@#@@@@++@@@@++",
"..@@++    @##@$$$@@###@.@@@@@@..",
"..@@++    @##@$$$@@###@.@@@@@@..",
"++@@......@$$@$$$@@###@@++@@++..",
"++@@......@##@@@@@@@@@@@++@@++..",
"++@@++....@##@@@@@@@@@@+@@@@@@++",
"++@@++....@@@@$$$$$$@@++@@@@@@++",
"..@@++++@@@@@@@@@@@@@@@.....@@++",
"..@@++++@@@@@@@@@@@@@@@.....@@++",
"  ..@@@@..@@@@@@@@@@@@@@@@@@++  ",
"  ..@@@@..@@@@@@@@@@@@@@@@@@++  ",
"    ....    ....    ......++    ",
"    ....    ....    ......++    "};
