/* XPM */
static char * sapphire_xpm[] = {
"32 32 6 1",
" 	c #CD7320",
".	c #FFFF8B",
"+	c #733120",
"@	c #000000",
"#	c #73ADFF",
"$	c #0000FF",
"      ..      ..      ..      ..",
"      ..      ..      ..      ..",
"..++      ..  @@..++      ..    ",
"..++      ..  @@..++      ..    ",
"    ....    @@##@@  ....        ",
"    ....    @@##@@  ....        ",
"..        @@######@@      ..  ..",
"..        @@######@@      ..  ..",
"      ..@@@@######@@@@..      ++",
"      ..@@@@######@@@@..      ++",
"  ..    @@##@@##@@$$@@          ",
"  ..    @@##@@##@@$$@@          ",
"        @@####@@$$$$@@  ..  ..  ",
"        @@####@@$$$$@@  ..  ..  ",
"..  ..  @@####@@$$$$@@    ++    ",
"..  ..  @@####@@$$$$@@    ++    ",
"      ..@@####@@$$$$@@..      ..",
"      ..@@####@@$$$$@@..      ..",
"..++    @@####@@$$$$@@    ..    ",
"..++    @@####@@$$$$@@    ..    ",
"    ....@@##@@$$@@$$@@..        ",
"    ....@@##@@$$@@$$@@..        ",
"..      @@@@$$$$$$@@@@    ..  ..",
"..      @@@@$$$$$$@@@@    ..  ..",
"      ..  @@$$$$$$@@  ..      ++",
"      ..  @@$$$$$$@@  ..      ++",
"  ..        @@$$@@..            ",
"  ..        @@$$@@..            ",
"        ..  ..@@        ..  ..  ",
"        ..  ..@@        ..  ..  ",
"..  ..    ++    ..  ..    ++    ",
"..  ..    ++    ..  ..    ++    "};
