/* XPM */
static char * tree_2_xpm[] = {
"32 32 5 1",
" 	c #000000",
".	c #CD7320",
"+	c #FFFF8B",
"@	c #20B44A",
"#	c #094A29",
"      ..++......++........++....",
"      ..++......++........++....",
"@@@@##  ......        ........++",
"@@@@##  ......        ........++",
"@@####  ....  ##@@@@@@    ..++..",
"@@####  ....  ##@@@@@@    ..++..",
"@@####  ..  ##@@@@@@@@@@##  ....",
"@@####  ..  ##@@@@@@@@@@##  ....",
"  ##  ##  ##################  ..",
"  ##  ##  ##################  ..",
"..  ##  ######      ##########  ",
"..  ##  ######      ##########  ",
"..  ..  ####  ######      ####  ",
"..  ..  ####  ######      ####  ",
"##  ..##  ####@@@@@@##  ..      ",
"##  ..##  ####@@@@@@##  ..      ",
"  @@++@@  ######@@@@@@##  ......",
"  @@++@@  ######@@@@@@##  ......",
"@@++    ############@@@@##  ++..",
"@@++    ############@@@@##  ++..",
"++@@  ######    ######@@##  ....",
"++@@  ######    ######@@##  ....",
"    ##@@@@######  ##########  ++",
"    ##@@@@######  ##########  ++",
"  ######@@++@@####  ########  ..",
"  ######@@++@@####  ########  ..",
"  ########@@++@@##  ########  ..",
"  ########@@++@@##  ########  ..",
"  ##########@@@@##    ########  ",
"  ##########@@@@##    ########  ",
"    ##########@@##      ######  ",
"    ##########@@##      ######  "};
