/* XPM */
static char * tree_3_xpm[] = {
"32 32 5 1",
" 	c #000000",
".	c #094A29",
"+	c #CD7320",
"@	c #FFFF8B",
"#	c #733120",
"      ............  ++++  ....  ",
"      ............  ++++  ....  ",
"....    ..........    ++++  ..  ",
"....    ..........    ++++  ..  ",
"++++..    ........  ++  @@++    ",
"++++..    ........  ++  @@++    ",
"++++  ..    ......  ++  ++++++++",
"++++  ..    ......  ++  ++++++++",
"    ++++      ....  ++  ++++@@++",
"    ++++      ....  ++  ++++@@++",
"@@++++++  ..    ..  ..  @@++++++",
"@@++++++  ..    ..  ..  @@++++++",
"  ++++  ++++      ++  ++++++++@@",
"  ++++  ++++      ++  ++++++++@@",
"++      ++++  ++++@@@@  ++@@++++",
"++      ++++  ++++@@@@  ++@@++++",
"@@++++++++++  ++++++@@++  ++++@@",
"@@++++++++++  ++++++@@++  ++++@@",
"@@++++        ++++++++++  ##++++",
"@@++++        ++++++++++  ##++++",
"  ++++  ++++########++++  ####++",
"  ++++  ++++########++++  ####++",
"++    ++++####          ######++",
"++    ++++####          ######++",
"@@++++++##            ######++@@",
"@@++++++##            ######++@@",
"@@++++##            ######++++++",
"@@++++##            ######++++++",
"++++##        ########++++++@@++",
"++++##        ########++++++@@++",
"        ##########++++++@@++++++",
"        ##########++++++@@++++++"};
