/* XPM */
static char * tree_1_xpm[] = {
"32 32 6 1",
" 	c #FFFF8B",
".	c #CD7320",
"+	c #000000",
"@	c #094A29",
"#	c #20B44A",
"$	c #DE8331",
"  ......................  ..++++",
"  ......................  ..++++",
"....  ....++++++++..  ....++@@##",
"....  ....++++++++..  ....++@@##",
"..  $$++++######@@++....++@@@@##",
"..  $$++++######@@++....++@@@@##",
"....++@@##########@@++..++@@@@##",
"....++@@##########@@++..++@@@@##",
"..++@@##@@@@@@@@@@##@@++@@++@@++",
"..++@@##@@@@@@@@@@##@@++@@++@@++",
"++@@@@@@@@@@++++++@@@@@@++@@++..",
"++@@@@@@@@@@++++++@@@@@@++@@++..",
"++@@@@++++++@@@@@@++@@++@@..++..",
"++@@@@++++++@@@@@@++@@++@@..++..",
"++++++..++@@######@@@@++@@..++@@",
"++++++..++@@######@@@@++@@..++@@",
"......++@@######@@@@@@++##  ##++",
"......++@@######@@@@@@++##  ##++",
"  ..++@@####@@@@@@++@@@@++++  ##",
"  ..++@@####@@@@@@++@@@@++++  ##",
"....++####@@@@@@++@@@@@@@@++##  ",
"....++####@@@@@@++@@@@@@@@++##  ",
"..++@@##@@@@@@++@@@@######@@++++",
"..++@@##@@@@@@++@@@@######@@++++",
"..++@@@@@@@@@@++@@##    ####@@@@",
"..++@@@@@@@@@@++@@##    ####@@@@",
"..++@@@@@@@@@@++@@    ####@@@@@@",
"..++@@@@@@@@@@++@@    ####@@@@@@",
"++@@@@@@@@@@++++@@  ##@@@@@@@@@@",
"++@@@@@@@@@@++++@@  ##@@@@@@@@@@",
"++@@@@@@@@++..++@@##@@@@@@@@@@++",
"++@@@@@@@@++..++@@##@@@@@@@@@@++"};
