/* XPM */
static char * wall_4_xpm[] = {
"32 32 6 1",
" 	c #000000",
".	c #391852",
"+	c #9C7BA4",
"@	c #FFFF8B",
"#	c #CD7320",
"$	c #733120",
"  ..++@@@@++..  ####$$$$$$$$    ",
"  ..++@@@@++..  ####$$$$$$$$    ",
"  ..++@@@@++..  ####$$$$$$$$    ",
"  ..++@@@@++..  ####$$$$$$$$    ",
"  ..++++@@++..  ##$$$$$$$$$$    ",
"  ..++++@@++..  ##$$$$$$$$$$    ",
"  ..++@@@@++..  ##$$$$$$$$$$    ",
"  ..++@@@@++..  ##$$$$$$$$$$    ",
"  ..++@@@@++..  ##$$$$$$$$$$    ",
"  ..++@@@@++..  ##$$$$$$$$$$    ",
"  ..++@@@@++..  ####$$$$$$      ",
"  ..++@@@@++..  ####$$$$$$      ",
"  ..++@@++++..  ####$$$$$$      ",
"  ..++@@++++..  ####$$$$$$      ",
"  ..++@@@@++..  ####$$$$$$      ",
"  ..++@@@@++..  ####$$$$$$      ",
"  ..++@@@@++..  ####$$$$$$$$    ",
"  ..++@@@@++..  ####$$$$$$$$    ",
"  ..++@@@@++..  ####$$$$$$$$    ",
"  ..++@@@@++..  ####$$$$$$$$    ",
"  ..++++@@++..  ##$$$$$$$$$$    ",
"  ..++++@@++..  ##$$$$$$$$$$    ",
"  ..++@@@@++..  ##$$$$$$$$$$    ",
"  ..++@@@@++..  ##$$$$$$$$$$    ",
"  ..++@@@@++..  ##$$$$$$$$$$    ",
"  ..++@@@@++..  ##$$$$$$$$$$    ",
"  ..++@@@@++..  ####$$$$$$      ",
"  ..++@@@@++..  ####$$$$$$      ",
"  ..++@@++++..  ####$$$$$$      ",
"  ..++@@++++..  ####$$$$$$      ",
"  ..++@@@@++..  ####$$$$$$      ",
"  ..++@@@@++..  ####$$$$$$      "};
