/* XPM */
static char * bush_1_xpm[] = {
"32 32 4 1",
" 	c #FFFF8B",
".	c #000000",
"+	c #20B44A",
"@	c #094A29",
"                                ",
"                                ",
"              ....              ",
"              ....              ",
"  ....      ..++++..      ....  ",
"  ....      ..++++..      ....  ",
"  ..++..  ..++++++++..  ..++..  ",
"  ..++..  ..++++++++..  ..++..  ",
"  ..++++....++....++....++++..  ",
"  ..++++....++....++....++++..  ",
"  ..++@@++....++++....++@@++..  ",
"  ..++@@++....++++....++@@++..  ",
"  ..++++@@++..++++..++@@++++..  ",
"  ..++++@@++..++++..++@@++++..  ",
"    ..++++@@..++++..@@++++..    ",
"    ..++++@@..++++..@@++++..    ",
"      ........@@@@........      ",
"      ........@@@@........      ",
"    ..++++@@........@@++++..    ",
"    ..++++@@........@@++++..    ",
"  ..++++@@++..++@@..@@@@++++..  ",
"  ..++++@@++..++@@..@@@@++++..  ",
"  ..++++++..++++@@++..++++++..  ",
"  ..++++++..++++@@++..++++++..  ",
"  ..........++++++++..........  ",
"  ..........++++++++..........  ",
"          ..++++++++..          ",
"          ..++++++++..          ",
"            ........            ",
"            ........            ",
"                                ",
"                                "};
