/* XPM */
static char * grasse_1_xpm[] = {
"32 32 2 1",
" 	c #FFFF8B",
".	c #20B44A",
"                                ",
"                                ",
"    ..                          ",
"    ..                          ",
"    ....    ..                  ",
"    ....    ..                  ",
"      ..  ....                  ",
"      ..  ....                  ",
"....      ..                    ",
"....      ..                    ",
"  ....                          ",
"  ....                          ",
"                                ",
"                                ",
"                                ",
"                                ",
"                                ",
"                                ",
"                    ..          ",
"                    ..          ",
"                    ....    ..  ",
"                    ....    ..  ",
"                      ..  ....  ",
"                      ..  ....  ",
"                ....      ..    ",
"                ....      ..    ",
"                  ....          ",
"                  ....          ",
"                                ",
"                                ",
"                                ",
"                                "};
