/* XPM */
static char * player_escape_2_xpm[] = {
"32 32 6 1",
" 	c #FFFF8B",
".	c #CD7320",
"+	c #733120",
"@	c #000000",
"#	c #FFBD8C",
"$	c #10AD42",
"  ..    ++..  ++++  ..++    ..  ",
"  ..    ++..  ++++  ..++    ..  ",
"..@@++..@@++..@@@@..++@@..++@@..",
"..@@++..@@++..@@@@..++@@..++@@..",
"  ++@@++@@@@+@@@@@++@@@@++@@++  ",
"  ++@@++@@@@@@@@@@@+@@@@++@@++  ",
"....@@@@@@@@@@@@@@@@@@@@@@@@....",
"....@@@@@@@@@######@@@@@@@@@....",
"++++@@@@@@@##@@@@@@#@@@@@@@@..++",
"++++@@@@@@@##@@@@@@#@@@@@@@@..++",
"@@@@@@@@##@@@$###$$@@@#@@@@@@@@@",
"@@@@@@@@##@$$$###$$$@@#@@@@@@@@@",
"..@@@@@@##@$$$###$$$@@#@@@@@@@..",
"..@@@@@@##@$$@$$#$$$@@#@@@@@@@..",
"  ++@@@@$$@@@$$$#$$$@@$@@@@@++  ",
"  ++@@@@$$@@@$$$#$$$@@$@@@@@++  ",
"++@@@@@@@@@@@$$$$$$@@@@+++@@++  ",
"++@@@@@@@@$@@$$$$@@$@@$@@+@@++  ",
"@@@@@@@@@@$@@$$$$@@$@@$@@+@@@@++",
"@@@@@@@@##$@@$$$@$$$@@$@@+@@@@++",
"..@@++ @##@$$@@@$$$#$$@@@@@@@@..",
"..@@++ @##@$$@@@$$$#$$@@@@@@@@..",
"++@@....@@$########$$$@@++@@++..",
"++@@....@@@$$$$$$$$@@@@@++@@++..",
"++@@++..@@@$$$$$$$$@@@@+@@@@@@++",
"++@@++..@@@@@@@@@@@###@@@@@@@@++",
"..@@++++@@@@@@@@@@@@@@@.....@@++",
"..@@++++@@@@@@@@@@@@@@@.....@@++",
"  ..@@@@..@@@@@@@@@@@@@@@@@@++  ",
"  ..@@@@..@@@@@@@@@@@@@@@@@@++  ",
"    ....    ....    ......++    ",
"    ....    ....    ......++    "};
