/* XPM */
static char * p_e_1_xpm[] = {
"32 32 5 1",
" 	c #000000",
".	c #CD7320",
"+	c #10AD42",
"@	c #FFBD8C",
"#	c #733120",
"  ........            ........  ",
"  ........            ........  ",
"          ++@@@@++++            ",
"          ++@@@@++++            ",
"  ....    ++    ++++++    ....  ",
"  ....    ++    ++++++    ....  ",
"      @@    @@@@@@@@++  @@  ##  ",
"      @@    @@@@@@@@++  @@  ##  ",
"..    @@  @@        @@  @@  ..  ",
"..    @@  @@        @@  @@  ..  ",
"..    @@                @@      ",
"..    @@                @@      ",
"      ++++            ++++    ..",
"      ++++            ++++    ..",
"  ....  @@@@  @@@@  @@@@  ##  ..",
"  ....  @@@@  @@@@  @@@@  ##  ..",
"  ####  ++@@  @@@@  @@++  ....  ",
"  ####  ++@@  @@@@  @@++  ....  ",
"      ++  ++@@@@@@@@++  ++  ..  ",
"      ++  ++@@@@@@@@++  ++  ..  ",
"..  @@++                ++    ..",
"..  @@++                ++    ..",
"..  @@    ++++++++  @@@@++  ..  ",
"..  @@    ++++++++  @@@@++  ..  ",
"  ##    ++@@@@@@@@  @@@@  ....  ",
"  ##    ++@@@@@@@@  @@@@  ....  ",
"  ....        ++++++    ####    ",
"  ....        ++++++    ####    ",
"        ++@@@@            ....  ",
"        ++@@@@            ....  ",
"    ..                          ",
"    ..                          "};
