/* XPM */
static char * player_2_xpm[] = {
"32 32 4 1",
" 	c #FFFF8B",
".	c #000000",
"+	c #FFBD8C",
"@	c #10AD42",
"            ......              ",
"            ......              ",
"          ..........            ",
"          ..........            ",
"          ..++++++++..          ",
"          ..++++++++..          ",
"      ....++........++....      ",
"      ....++........++....      ",
"    ..++....@@++++@@....++..    ",
"    ..++....@@++++@@....++..    ",
"    ..++..@@@@++++@@@@..++..    ",
"    ..++..@@@@++++@@@@..++..    ",
"    ..++..@@..@@++@@@@..++..    ",
"    ..++..@@..@@++@@@@..++..    ",
"    ..@@....@@@@++@@@@..@@..    ",
"    ..@@....@@@@++@@@@..@@..    ",
"      ......@@@@@@@@......      ",
"      ......@@@@@@@@......      ",
"      ..@@..@@@@@@..@@..@@..    ",
"      ..@@..@@@@@@..@@..@@..    ",
"    ..++@@..@@@@..@@@@..@@..    ",
"    ..++@@..@@@@..@@@@..@@..    ",
"    ..++..@@....@@@@++@@....    ",
"    ..++..@@....@@@@++@@....    ",
"      ..@@++++++++++@@@@..      ",
"      ..@@++++++++++@@@@..      ",
"      ....@@@@@@@@@@......      ",
"      ....@@@@@@@@@@......      ",
"      ..............++++....    ",
"      ..............++++....    ",
"        ..................      ",
"        ..................      "};
