/* XPM */
static char * sapphire_xpm[] = {
"32 32 5 1",
" 	c #FFFF8B",
".	c #20B44A",
"+	c #000000",
"@	c #73ADFF",
"#	c #0000FF",
"                                ",
"                                ",
"    ..        ++                ",
"    ..        ++                ",
"    ....    ++@@++              ",
"    ....    ++@@++              ",
"      ..  ++@@@@@@++            ",
"      ..  ++@@@@@@++            ",
"....    ++++@@@@@@++++          ",
"....    ++++@@@@@@++++          ",
"  ....  ++@@++@@++##++          ",
"  ....  ++@@++@@++##++          ",
"        ++@@@@++####++          ",
"        ++@@@@++####++          ",
"        ++@@@@++####++          ",
"        ++@@@@++####++          ",
"        ++@@@@++####++          ",
"        ++@@@@++####++          ",
"        ++@@@@++####++          ",
"        ++@@@@++####++          ",
"        ++@@++##++##++..    ..  ",
"        ++@@++##++##++..    ..  ",
"        ++++######++++..  ....  ",
"        ++++######++++..  ....  ",
"          ++######++      ..    ",
"          ++######++      ..    ",
"            ++##++....          ",
"            ++##++....          ",
"              ++                ",
"              ++                ",
"                                ",
"                                "};
