/* XPM */
static char * tree_3_xpm[] = {
"32 32 6 1",
" 	c #20B44A",
".	c #094A29",
"+	c #000000",
"@	c #CD7320",
"#	c #733120",
"$	c #FFFF8B",
"            ..................++",
"            ..................++",
"            ..................++",
"            ..................++",
"....      ..............++..++..",
"....      ..............++..++..",
"........................++++++@@",
"........................++++++@@",
"..................++....++++@@++",
"..................++....++++@@++",
"..................++++++@@@@@@++",
"..................++++++@@@@@@++",
"++..........++..++++@@@@++++++@@",
"++..........++..++++@@@@++++++@@",
"++++....++++++++++@@++++++..@@@@",
"++++....++++++++++@@++++++..@@@@",
"##++++++++######@@@@##++####@@$$",
"##++++++++######@@@@##++####@@$$",
"@@############@@@@$$@@##++@@@@$$",
"@@############@@@@$$@@##++@@@@$$",
"$$@@######++####@@@@$$@@##++$$$$",
"$$@@######++####@@@@$$@@##++$$$$",
"$$@@####++++++++##@@@@@@@@++$$$$",
"$$@@####++++++++##@@@@@@@@++$$$$",
"@@@@####++####++++++##@@##++$$$$",
"@@@@####++####++++++##@@##++$$$$",
"@@####++##########++++++++@@$$$$",
"@@####++##########++++++++@@$$$$",
"##++++########@@@@@@@@$$$$$$$$$$",
"##++++########@@@@@@@@$$$$$$$$$$",
"++++####@@@@@@@@$$$$$$$$$$$$$$$$",
"++++####@@@@@@@@$$$$$$$$$$$$$$$$"};
