/* XPM */
static char * bush_3_xpm[] = {
"16 16 6 1",
" 	c #CD7320",
".	c #FFFF8B",
"+	c #733120",
"@	c #000000",
"#	c #20B44A",
"$	c #094A29",
"   .   .   .   .",
".+   . @@+   .  ",
" @@.  @##@.. @@ ",
".@#@ @####@ @#@.",
" @##@@#@@#@@##@+",
" @#$#@@##@@#$#@ ",
" @##$#@##@#$##@ ",
". @##$@##@$##@  ",
"   @@@@$$@@@@  .",
".+@##$@@@@$##@  ",
" @##$#@#$@$$##@ ",
".@###@##$#@###@.",
" @@@@@####@@@@@+",
" .   @####@     ",
"    . @@@@  . . ",
". .  +  . .  +  "};
