/* XPM */
static char * bush_2_xpm[] = {
"16 16 4 1",
" 	c #CD7320",
".	c #000000",
"+	c #20B44A",
"@	c #094A29",
"                ",
"       ..       ",
" ..   .++.   .. ",
" .+. .++++. .+. ",
" .++..+..+..++. ",
" .+@+..++..+@+. ",
" .++@+.++.+@++. ",
"  .++@.++.@++.  ",
"   ....@@....   ",
"  .++@....@++.  ",
" .++@+.+@.@@++. ",
" .+++.++@+.+++. ",
" .....++++..... ",
"     .++++.     ",
"      ....      ",
"                "};
