/* XPM */
static char * corner_bottom_left_xpm[] = {
"16 16 6 1",
" 	c #000000",
".	c #391852",
"+	c #9C7BA4",
"@	c #FFFF8B",
"#	c #CD7320",
"$	c #733120",
" .+@@+. ##$$$   ",
" .+@@+. ##$$    ",
" .++@+. ##$   $$",
" .+@@+. ##$ $$$$",
" .+@@+. ##$$$$$$",
" .+@@+. ###$$$$$",
" .+@++. $#######",
" .+@@+.  $######",
" .+@@+.         ",
" .+@@@+.........",
" .++@@@+++++++++",
" ..++@@@@@@@@+@@",
"  ..+++@@+@@@@@@",
".  ...++++++++++",
"+.  ............",
"$++.            "};
