/* XPM */
static char * emerald_xpm[] = {
"16 16 4 1",
" 	c None",
".	c #000000",
"+	c #73ADFF",
"@	c #0000FF",
"                ",
"       .        ",
"      .+.       ",
"     .+++.      ",
"    ..+++..     ",
"    .+.+.@.     ",
"    .++.@@.     ",
"    .++.@@.     ",
"    .++.@@.     ",
"    .++.@@.     ",
"    .+.@.@.     ",
"    ..@@@..     ",
"     .@@@.      ",
"      .@.       ",
"       .        ",
"                "};
