/* XPM */
static char * exit_close_xpm[] = {
"32 32 3 1",
" 	c #000000",
".	c #CD7320",
"+	c #733120",
"  ........            ........  ",
"  ........            ........  ",
"          ............          ",
"          ............          ",
"  ............................  ",
"  ............................  ",
"    ......++++++++........++++  ",
"    ......++++++++........++++  ",
"..  ++++++..........++++......  ",
"..  ++++++..........++++......  ",
"..  ........                    ",
"..  ........                    ",
"              ..............  ..",
"              ..............  ..",
"  ....................++++++  ..",
"  ....................++++++  ..",
"  ++++++++....................  ",
"  ++++++++....................  ",
"    ..........          ......  ",
"    ..........          ......  ",
"..            ++......++      ..",
"..            ++......++      ..",
"..  ..........          ......  ",
"..  ..........          ......  ",
"  ++++++......................  ",
"  ++++++......................  ",
"  ..........++++++......++++    ",
"  ..........++++++......++++    ",
"            ..................  ",
"            ..................  ",
"    ........                    ",
"    ........                    "};
