/* XPM */
static char * exit_close_xpm[] = {
"16 16 3 1",
" 	c #000000",
".	c #CD7320",
"+	c #733120",
" ....      .... ",
"     ......     ",
" .............. ",
"  ...++++....++ ",
". +++.....++... ",
". ....          ",
"       ....... .",
" ..........+++ .",
" ++++.......... ",
"  .....     ... ",
".      +...+   .",
". .....     ... ",
" +++........... ",
" .....+++...++  ",
"      ......... ",
"  ....          "};
