/* XPM */
static char * exit_open_xpm[] = {
"16 16 4 1",
" 	c #FFFF8B",
".	c #CD7320",
"+	c #733120",
"@	c #000000",
" .  +. ++ .+  . ",
".@+.@+.@@.+@.+@.",
" +@+@@+@@+@@+@+ ",
"..@@@@@@@@@@@@..",
"++@@@@@@@@@@@@.+",
"@@@@@@@@@@@@@@@@",
".@@@@@@@@@@@@@@.",
" +@@@@@@@@@@@@+ ",
"+@@@@@@++.@++@+ ",
"@@@@@@++++.@+@@+",
".@+  +@@@++.@@@.",
"+@...   +@@@+@+.",
"+@+.....   +@@@+",
".@++@+.+.+....@+",
" .@@.@@@@@@@@@+ ",
"  ..  ..  ...+  "};
