/* XPM */
static char * grasse_1_xpm[] = {
"16 16 2 1",
" 	c #FFFF8B",
".	c #20B44A",
"                ",
"  .             ",
"  ..  .         ",
"   . ..         ",
"..   .          ",
" ..             ",
"                ",
"                ",
"                ",
"          .     ",
"          ..  . ",
"           . .. ",
"        ..   .  ",
"         ..     ",
"                ",
"                "};
