/* XPM */
static char * gravel_xpm[] = {
"16 16 3 1",
" 	c #CD7320",
".	c #FFFF8B",
"+	c #733120",
"   .   .   .   .",
".+   .  .+   .  ",
"  ..      ..    ",
".    . ..    . .",
"   .   +   .   +",
" .       .      ",
"    . .     . . ",
". .  +  . .  +  ",
"   .   .   .   .",
".+   .  .+   .  ",
"  ..      ..    ",
".    . ..    . .",
"   .   +   .   +",
" .       .      ",
"    . .     . . ",
". .  +  . .  +  "};
