/* XPM */
static char * player_3_xpm[] = {
"16 16 4 1",
" 	c None",
".	c #000000",
"+	c #10AD42",
"@	c #FFBD8C",
"      .....     ",
"    ..+@+++.    ",
"   .@@.+@@++.   ",
" ...+@@.++.++.  ",
"  ...+@@..@.++. ",
"    ...+.+@.++. ",
"  ..@.@..@@.+.  ",
"  .@@.@@.@@..   ",
"   .+@@@.@+.    ",
"    .+++.+..    ",
"    ......+.    ",
"    .+.@@.++.   ",
"    .@.@@.++.   ",
"    .+.......   ",
"    ...@@@@.    ",
"   ..........   "};
