/* XPM */
static char * player_2_xpm[] = {
"16 16 4 1",
" 	c None",
".	c #000000",
"+	c #FFBD8C",
"@	c #10AD42",
"      ...       ",
"     .....      ",
"     .++++.     ",
"   ..+....+..   ",
"  .+..@++@..+.  ",
"  .+.@@++@@.+.  ",
"  .+.@.@+@@.+.  ",
"  .@..@@+@@.@.  ",
"   ...@@@@...   ",
"   .@.@@@.@.@.  ",
"  .+@.@@.@@.@.  ",
"  .+.@..@@+@..  ",
"   .@+++++@@.   ",
"   ..@@@@@...   ",
"   .......++..  ",
"    .........   "};
