/* XPM */
static char * sand_xpm[] = {
"16 16 3 1",
" 	c #FFFF8B",
".	c #CD7320",
"+	c #733120",
" ......  ...... ",
"................",
"....+.......+...",
"................",
".+.......+......",
"..... ....... ..",
"................",
" ......  ...... ",
" ......  ...... ",
"................",
"....+.......+...",
"................",
".+.......+......",
"..... ....... ..",
"................",
" ......  ...... "};
