/* XPM */
static char * saph_xpm[] = {
"32 32 4 1",
" 	c None",
".	c #000000",
"+	c #73ADFF",
"@	c #0000FF",
"                                ",
"                                ",
"              ..                ",
"              ..                ",
"            ..++..              ",
"            ..++..              ",
"          ..++++++..            ",
"          ..++++++..            ",
"        ....++++++....          ",
"        ....++++++....          ",
"        ..++..++..@@..          ",
"        ..++..++..@@..          ",
"        ..++++..@@@@..          ",
"        ..++++..@@@@..          ",
"        ..++++..@@@@..          ",
"        ..++++..@@@@..          ",
"        ..++++..@@@@..          ",
"        ..++++..@@@@..          ",
"        ..++++..@@@@..          ",
"        ..++++..@@@@..          ",
"        ..++..@@..@@..          ",
"        ..++..@@..@@..          ",
"        ....@@@@@@....          ",
"        ....@@@@@@....          ",
"          ..@@@@@@..            ",
"          ..@@@@@@..            ",
"            ..@@..              ",
"            ..@@..              ",
"              ..                ",
"              ..                ",
"                                ",
"                                "};
