/* XPM */
static char * tree_1_xpm[] = {
"16 16 4 1",
" 	c #FFFF8B",
".	c #20B44A",
"+	c #000000",
"@	c #094A29",
"       .++++++++",
"     .++@.......",
"    ++@...@..   ",
"   +@....@..    ",
"  +@....@@..    ",
" .+@...@@@...   ",
" +@...@@@@......",
".+@@..@@@.......",
"+@@@..@@@..@@...",
"+@@....@@@@@@@@@",
"+@@.....@@@@@@@@",
"+@@.....@@@@@@@@",
"+@@@.....@@..@@@",
"+@@@.@@.......@@",
"+@@@@@@.........",
"+@@@@@@@........"};
