/* XPM */
static char * tree_2_xpm[] = {
"16 16 4 1",
" 	c #000000",
".	c #20B44A",
"+	c #FFFF8B",
"@	c #094A29",
"        .+++++++",
"..@@@@@@  .+++++",
"....@@..@@  ++++",
"+....@@...@@ +++",
"+....@@@...@@ ++",
"......@@@..@@ .+",
"......@@@...@@ +",
".....@@@@...@@ .",
"...@@@@@@..@@@@ ",
"...@@@@@...@@@@ ",
"@.@@@@@@....@@@ ",
"@@@@@@@@....@@@ ",
"@@@@.@@.....@@@ ",
"@@@........@@@@ ",
"@@......@@@@@@@ ",
"........@@@@@@@ "};
