/* XPM */
static char * tree_1_2_xpm[] = {
"16 16 5 1",
" 	c #000000",
".	c #DE8331",
"+	c #FFFF8B",
"@	c #20B44A",
"#	c #094A29",
"   .+...+....+..",
"@@# ...    ....+",
"@## .. #@@@  .+.",
"@## . #@@@@@# ..",
" # # ######### .",
". # ###   ##### ",
". . ## ###   ## ",
"# .# ##@@@# .   ",
" @+@ ###@@@# ...",
"@+  ######@@# +.",
"+@ ###  ###@# ..",
"  #@@### ##### +",
" ###@+@## #### .",
" ####@+@# #### .",
" #####@@#  #### ",
"  #####@#   ### "};
