/* XPM */
static char * tree_4_xpm[] = {
"16 16 6 1",
" 	c #000000",
".	c #094A29",
"+	c #20B44A",
"@	c #CD7320",
"#	c #733120",
"$	c #FFFF8B",
" .........++++++",
"@ .........+++++",
"@ .........++++.",
".   ........+...",
" @@ .. .........",
" @@@   .........",
"@   @@   .. ....",
"@@.   @@     .. ",
"@@## @$@@@@#   #",
"@@@ @$$$@@@@@@$$",
"$@ #$$$@@# #@$$$",
"$$ @$@@#    #$$$",
"$$ #@#   ## #@$$",
"$$@   @@#### #@@",
"$$$$$$@@@@###  @",
"$$$$$$$$$@@@@@  "};
