/* XPM */
static char * tree_1_1_xpm[] = {
"16 16 5 1",
" 	c #FFFF8B",
".	c #DE8331",
"+	c #000000",
"@	c #094A29",
"#	c #20B44A",
" ........... .++",
".. ..++++. ..+@#",
". .++###@+..+@@#",
"..+@#####@+.+@@#",
".+@#@@@@@#@+@+@+",
"+@@@@@+++@@@+@+.",
"+@@+++@@@+@+@.+.",
"+++.+@###@@+@.+@",
"...+@###@@@+# #+",
" .+@##@@@+@@++ #",
"..+##@@@+@@@@+# ",
".+@#@@@+@@###@++",
".+@@@@@+@#  ##@@",
".+@@@@@+@  ##@@@",
"+@@@@@++@ #@@@@@",
"+@@@@+.+@#@@@@@+"};
