/* XPM */
static char * tree_1_4_xpm[] = {
"16 16 5 1",
" 	c #000000",
".	c #094A29",
"+	c #CD7320",
"@	c #FFFF8B",
"#	c #733120",
" ... ++ ....... ",
" .. ++  ...... .",
" . ++ + ..... .+",
"+ ++@ + ....   +",
"++@++ . ...  ++ ",
"@+++@.  ..   ++@",
"++@++ +    + ++ ",
"++++ @@++ +++  +",
"+@+ @@@++   +++@",
"++# @++++++# ++@",
"@+# +++##+++ ++ ",
"++##      #++  +",
"+@+##      #+++@",
"@+++###     #++@",
"++@+++####   #++",
"@+++@++++####   "};
