/* XPM */
static char * wall_1_xpm[] = {
"16 16 6 1",
" 	c #000000",
".	c #391852",
"+	c #9C7BA4",
"@	c #FFFF8B",
"#	c #733120",
"$	c #CD7320",
"                ",
"................",
"++++++++++++++++",
"@@@@@+@@@@@@@+@@",
"@+@@@@@@@+@@@@@@",
"++++++++++++++++",
"................",
"                ",
"###$$$$$$$$$$###",
"$$$$$######$$$$$",
"$$$###### ###$$$",
"#########$######",
"## #############",
"################",
"#####      #####",
"                "};
